<svg width="20" height="25" viewBox="0 0 20 25" fill="none" xmlns="http://www.w3.org/2000/svg">
<path d="M5.27701 14.3341C5.64974 10.9999 8.47804 8.40771 11.9118 8.40771C15.3238 8.40771 18.138 10.9672 18.5392 14.271C18.4282 14.2687 18.3097 14.2669 18.1853 14.2656C17.4805 14.2578 16.5455 14.263 15.6161 14.2732C14.6855 14.2834 13.7553 14.2987 13.0582 14.3114C12.7096 14.3178 12.419 14.3235 12.2156 14.3276L11.9793 14.3325L11.9169 14.3339L11.9036 14.3341H5.27701Z" stroke="#3DA265" stroke-width="1.5"/>
<path d="M11.9118 7.82677V5.29383C11.9118 5.29383 11.9118 5.29383 11.9118 5.29383C11.9118 5.29383 11.9118 0.823234 6.41291 0.823242C0.914062 0.82325 0.914062 5.29383 0.914062 5.29383C0.914062 5.29383 0.914062 5.29383 0.914062 5.29383V24.1557" stroke="#3DA265" stroke-width="1.5" stroke-linecap="round"/>
<path d="M17.0495 20.5434C17.0495 20.9839 16.6923 21.3411 16.2518 21.3411C15.8112 21.3411 15.4541 20.9839 15.4541 20.5434C15.4541 20.5435 15.4541 20.5434 15.4541 20.5433C15.4543 20.5408 15.4563 20.5071 15.4807 20.4353C15.5056 20.3623 15.5461 20.2711 15.6048 20.1632C15.7229 19.9461 15.8895 19.7063 16.0701 19.4739C16.131 19.3955 16.1922 19.3197 16.2518 19.2479C16.3114 19.3197 16.3725 19.3955 16.4335 19.4739C16.6141 19.7063 16.7807 19.9461 16.8988 20.1632C16.9574 20.2711 16.998 20.3623 17.0228 20.4353C17.0472 20.5071 17.0493 20.5408 17.0495 20.5433C17.0495 20.5434 17.0495 20.5435 17.0495 20.5434Z" stroke="#3DA265" stroke-width="1.5"/>
<path d="M8.36978 20.5434C8.36978 20.9839 8.01265 21.3411 7.5721 21.3411C7.13155 21.3411 6.77441 20.9839 6.77441 20.5434C6.77441 20.5435 6.77442 20.5434 6.77443 20.5433C6.77458 20.5408 6.77666 20.5071 6.80105 20.4353C6.82586 20.3623 6.86644 20.2711 6.92511 20.1632C7.04318 19.9461 7.20979 19.7063 7.3904 19.4739C7.45135 19.3955 7.51253 19.3197 7.5721 19.2479C7.63167 19.3197 7.69284 19.3955 7.7538 19.4739C7.93441 19.7063 8.10101 19.9461 8.21909 20.1632C8.27775 20.2711 8.31833 20.3623 8.34315 20.4353C8.36754 20.5071 8.36962 20.5408 8.36977 20.5433C8.36978 20.5434 8.36978 20.5435 8.36978 20.5434Z" stroke="#3DA265" stroke-width="1.5"/>
<path d="M12.7096 18.56C12.7096 19.0005 12.3525 19.3577 11.9119 19.3577C11.4714 19.3577 11.1143 19.0005 11.1143 18.56C11.1143 18.5601 11.1143 18.56 11.1143 18.5599C11.1144 18.5574 11.1165 18.5237 11.1409 18.4519C11.1657 18.3789 11.2063 18.2877 11.2649 18.1798C11.383 17.9627 11.5496 17.7229 11.7302 17.4905C11.7912 17.4121 11.8524 17.3363 11.9119 17.2645C11.9715 17.3363 12.0327 17.4121 12.0936 17.4905C12.2743 17.7229 12.4409 17.9627 12.5589 18.1798C12.6176 18.2877 12.6582 18.3789 12.683 18.4519C12.7074 18.5237 12.7095 18.5574 12.7096 18.5599C12.7096 18.56 12.7096 18.5601 12.7096 18.56Z" stroke="#3DA265" stroke-width="1.5"/>
</svg>
