<svg width="95" height="81" viewBox="0 0 95 81" fill="none" xmlns="http://www.w3.org/2000/svg">
<path d="M14.6865 31.6455C14.6865 26.5369 18.8279 22.3955 23.9365 22.3955H85C90.1086 22.3955 94.25 26.5369 94.25 31.6455V40.3795V70.0977C94.25 75.2063 90.1086 79.3477 85 79.3477H23.9365C18.8279 79.3477 14.6865 75.2063 14.6865 70.0977V40.3795V31.6455Z" stroke="#3DA265" stroke-width="1.5"/>
<path d="M83.5049 22.4322L79.6973 8.22191C78.2678 2.88725 72.7845 -0.278578 67.4498 1.15084L8.46703 16.9552C3.13237 18.3846 -0.03346 23.868 1.39596 29.2027L11.3481 66.3446C11.9375 68.5443 13.2161 70.3752 14.8894 71.6672" stroke="#3DA265" stroke-width="1.5"/>
</svg>
