<svg width="28" height="27" viewBox="0 0 28 27" fill="none" xmlns="http://www.w3.org/2000/svg">
<path d="M10.8531 15.1096L8.70943 9.00193C8.70692 8.99476 8.70437 8.98794 8.70169 8.98084C8.66642 8.88731 8.41321 8.17975 8.62483 7.67714C8.83625 7.17502 9.49726 6.88553 9.58699 6.84816C9.59392 6.84527 9.60029 6.84262 9.60716 6.83959C9.80822 6.75099 13.0042 5.34568 17.1958 3.68536C21.3431 2.04256 24.8285 0.962135 25.1162 0.873582C25.1306 0.869168 25.1421 0.865 25.1564 0.860378C25.2614 0.82639 25.7411 0.70216 26.1489 1.1102C26.5716 1.53305 26.423 2.0327 26.3954 2.11268C26.3928 2.1203 26.3903 2.12707 26.3876 2.13468C26.3132 2.34941 25.1509 5.6953 23.5396 10.0292C21.9297 14.3594 20.5134 17.4486 20.42 17.6514C20.4166 17.6589 20.4137 17.6654 20.4104 17.673C20.3721 17.7609 20.0987 18.3531 19.5931 18.5996C19.0624 18.8584 18.3705 18.6284 18.3304 18.6147L18.3266 18.6134L12.1294 16.3858M8.1134 16.9552L10.2527 19.0946C10.4719 19.3138 10.4719 19.6691 10.2527 19.8883L4.5524 25.5886C4.5524 25.5886 4.5524 25.5886 4.5524 25.5886C4.5524 25.5886 3.1246 27.0164 1.65808 25.5499C0.19155 24.0834 1.61935 22.6556 1.61935 22.6556C1.61935 22.6556 1.61935 22.6556 1.61935 22.6556L7.31968 16.9552C7.53886 16.7361 7.89422 16.7361 8.1134 16.9552ZM9.86673 18.7088L8.54437 17.3865L12.9557 12.9751C12.9557 12.9751 13.8418 11.9387 14.5781 12.6751C15.3145 13.4115 14.2781 14.2975 14.2781 14.2975L9.86673 18.7088Z" stroke="#3DA265" stroke-width="1.5"/>
</svg>
