<svg width="34" height="34" viewBox="0 0 34 34" fill="none" xmlns="http://www.w3.org/2000/svg">
<path fill-rule="evenodd" clip-rule="evenodd" d="M33.2522 2.54123C33.6427 2.1507 33.6427 1.51754 33.2522 1.12701C32.8617 0.736491 32.2285 0.73649 31.838 1.12701L19.2986 13.6664C18.127 14.838 16.2275 14.838 15.0559 13.6664L2.51698 1.1275C2.12646 0.736978 1.49329 0.736978 1.10277 1.1275C0.712245 1.51803 0.712245 2.15119 1.10277 2.54172L13.6417 15.0807C14.8133 16.2522 14.8133 18.1517 13.6417 19.3233L1.10277 31.8622C0.712244 32.2528 0.712244 32.8859 1.10277 33.2765C1.49329 33.667 2.12646 33.667 2.51698 33.2765L15.0559 20.7375C16.2275 19.5659 18.127 19.5659 19.2986 20.7375L31.838 33.2769C32.2285 33.6675 32.8617 33.6675 33.2522 33.2769C33.6427 32.8864 33.6427 32.2533 33.2522 31.8627L20.7128 19.3233C19.5412 18.1517 19.5412 16.2522 20.7128 15.0807L33.2522 2.54123Z" fill="#3DA265"/>
</svg>
