<svg width="46" height="46" viewBox="0 0 46 46" fill="none" xmlns="http://www.w3.org/2000/svg">
<circle cx="22.9094" cy="22.9094" r="22.4094" fill="white" stroke="#F0F0F0"/>
<path fill-rule="evenodd" clip-rule="evenodd" d="M28.7113 19.583C29.1018 19.1925 29.1018 18.5594 28.7113 18.1688C28.3208 17.7783 27.6876 17.7783 27.2971 18.1688L23.2664 22.1995L19.2356 18.1686C18.8451 17.7781 18.2119 17.7781 17.8214 18.1686C17.4309 18.5591 17.4309 19.1923 17.8214 19.5828L21.8522 23.6137L17.8221 27.6439C17.4315 28.0344 17.4315 28.6675 17.8221 29.0581C18.2126 29.4486 18.8458 29.4486 19.2363 29.0581L23.2664 25.0279L27.2964 29.0579C27.6869 29.4484 28.3201 29.4484 28.7106 29.0579C29.1011 28.6673 29.1011 28.0342 28.7106 27.6436L24.6807 23.6137L28.7113 19.583Z" fill="#3DA265"/>
</svg>
