<svg width="10" height="10" viewBox="0 0 10 10" fill="none" xmlns="http://www.w3.org/2000/svg">
<path d="M3.124 1.62877C3.124 2.41755 2.48457 3.05698 1.69579 3.05698C0.90701 3.05698 0.267578 2.41755 0.267578 1.62877C0.267578 0.839993 0.90701 0.200562 1.69579 0.200562C2.48457 0.200562 3.124 0.839993 3.124 1.62877Z" fill="#D0C7A2"/>
<path d="M3.124 8.06971C3.124 8.85849 2.48457 9.49792 1.69579 9.49792C0.90701 9.49792 0.267578 8.85849 0.267578 8.06971C0.267578 7.28093 0.90701 6.6415 1.69579 6.6415C2.48457 6.6415 3.124 7.28093 3.124 8.06971Z" fill="#D0C7A2"/>
<path d="M9.62133 1.62877C9.62133 2.41755 8.9819 3.05698 8.19312 3.05698C7.40434 3.05698 6.76491 2.41755 6.76491 1.62877C6.76491 0.839993 7.40434 0.200562 8.19312 0.200562C8.9819 0.200562 9.62133 0.839993 9.62133 1.62877Z" fill="#D0C7A2"/>
<path d="M9.62133 8.06971C9.62133 8.85849 8.9819 9.49792 8.19312 9.49792C7.40434 9.49792 6.76491 8.85849 6.76491 8.06971C6.76491 7.28093 7.40434 6.6415 8.19312 6.6415C8.9819 6.6415 9.62133 7.28093 9.62133 8.06971Z" fill="#D0C7A2"/>
</svg>
