<svg width="18" height="30" viewBox="0 0 18 30" fill="none" xmlns="http://www.w3.org/2000/svg">
<path fill-rule="evenodd" clip-rule="evenodd" d="M3.09082 2.05078H14.3487C15.1771 2.05078 15.8487 2.72235 15.8487 3.55078V10.2642H1.59082V3.55078C1.59082 2.72235 2.26239 2.05078 3.09082 2.05078ZM1.59082 11.7642V26.4534C1.59082 27.2818 2.26239 27.9534 3.09082 27.9534H14.3487C15.1771 27.9534 15.8487 27.2818 15.8487 26.4534V11.7642H1.59082ZM0.0908203 3.55078C0.0908203 1.89393 1.43397 0.550781 3.09082 0.550781H14.3487C16.0055 0.550781 17.3487 1.89393 17.3487 3.55078V26.4534C17.3487 28.1103 16.0055 29.4534 14.3487 29.4534H3.09082C1.43397 29.4534 0.0908203 28.1103 0.0908203 26.4534V3.55078ZM3.50684 13.1748C3.92105 13.1748 4.25684 13.5106 4.25684 13.9248L4.25684 22.701C4.25684 23.1152 3.92105 23.451 3.50684 23.451C3.09262 23.451 2.75684 23.1152 2.75684 22.701L2.75684 13.9248C2.75684 13.5106 3.09262 13.1748 3.50684 13.1748ZM4.25684 3.31787C4.25684 2.90366 3.92105 2.56787 3.50684 2.56787C3.09262 2.56787 2.75684 2.90366 2.75684 3.31787L2.75684 8.32412C2.75684 8.73833 3.09262 9.07412 3.50684 9.07412C3.92105 9.07411 4.25684 8.73833 4.25684 8.32412V3.31787Z" fill="#3DA265"/>
</svg>
