<svg width="40" height="58" viewBox="0 0 40 58" fill="none" xmlns="http://www.w3.org/2000/svg">
<g filter="url(#filter0_d_327_30)">
<path d="M37.6488 18.4392C37.6488 28.146 20.0729 51.7573 20.0729 51.7573C20.0729 51.7573 2.49707 28.146 2.49707 18.4392C2.49707 8.73227 10.3661 0.863281 20.0729 0.863281C29.7798 0.863281 37.6488 8.73227 37.6488 18.4392Z" fill="#51C17E"/>
</g>
<circle cx="20.0648" cy="18.5062" r="16.264" fill="#FFFEFC"/>
<path fill-rule="evenodd" clip-rule="evenodd" d="M20.5433 11.8818C20.5433 11.3296 20.0956 10.8818 19.5433 10.8818C18.991 10.8818 18.5433 11.3296 18.5433 11.8818V17.582H12.8428C12.2905 17.582 11.8428 18.0297 11.8428 18.582C11.8428 19.1343 12.2905 19.582 12.8428 19.582H18.5433V25.2815C18.5433 25.8338 18.991 26.2815 19.5433 26.2815C20.0956 26.2815 20.5433 25.8338 20.5433 25.2815V19.582H26.2425C26.7948 19.582 27.2425 19.1343 27.2425 18.582C27.2425 18.0297 26.7948 17.582 26.2425 17.582H20.5433V11.8818Z" fill="#3DA265"/>
<defs>
<filter id="filter0_d_327_30" x="0.49707" y="0.863281" width="39.1514" height="56.8936" filterUnits="userSpaceOnUse" color-interpolation-filters="sRGB">
<feFlood flood-opacity="0" result="BackgroundImageFix"/>
<feColorMatrix in="SourceAlpha" type="matrix" values="0 0 0 0 0 0 0 0 0 0 0 0 0 0 0 0 0 0 127 0" result="hardAlpha"/>
<feOffset dy="4"/>
<feGaussianBlur stdDeviation="1"/>
<feComposite in2="hardAlpha" operator="out"/>
<feColorMatrix type="matrix" values="0 0 0 0 0 0 0 0 0 0 0 0 0 0 0 0 0 0 0.1 0"/>
<feBlend mode="normal" in2="BackgroundImageFix" result="effect1_dropShadow_327_30"/>
<feBlend mode="normal" in="SourceGraphic" in2="effect1_dropShadow_327_30" result="shape"/>
</filter>
</defs>
</svg>
