<svg width="25" height="31" viewBox="0 0 25 31" fill="none" xmlns="http://www.w3.org/2000/svg">
<path d="M24.0952 12.6018C24.0952 21.5791 12.553 29.2739 12.553 29.2739C12.553 29.2739 1.01074 21.5791 1.01074 12.6018C1.01074 9.54062 2.2268 6.6048 4.39138 4.44021C6.55597 2.27562 9.49179 1.05957 12.553 1.05957C15.6142 1.05957 18.55 2.27562 20.7146 4.44021C22.8792 6.6048 24.0952 9.54062 24.0952 12.6018Z" stroke="white" stroke-width="1.5" stroke-linecap="round" stroke-linejoin="round"/>
<path d="M12.5525 16.4487C14.6774 16.4487 16.3999 14.7262 16.3999 12.6013C16.3999 10.4765 14.6774 8.75391 12.5525 8.75391C10.4276 8.75391 8.70508 10.4765 8.70508 12.6013C8.70508 14.7262 10.4276 16.4487 12.5525 16.4487Z" stroke="white" stroke-width="1.5" stroke-linecap="round" stroke-linejoin="round"/>
</svg>
