<svg width="27" height="26" viewBox="0 0 27 26" fill="none" xmlns="http://www.w3.org/2000/svg">
<path fill-rule="evenodd" clip-rule="evenodd" d="M14.4181 1.15918C14.4181 0.606895 13.9704 0.15918 13.4181 0.15918C12.8658 0.15918 12.4181 0.606895 12.4181 1.15918V11.9087H1.66797C1.11568 11.9087 0.667969 12.3564 0.667969 12.9087C0.667969 13.461 1.11568 13.9087 1.66797 13.9087H12.4181V24.6583C12.4181 25.2106 12.8658 25.6583 13.4181 25.6583C13.9704 25.6583 14.4181 25.2106 14.4181 24.6583V13.9087H25.1671C25.7194 13.9087 26.1671 13.461 26.1671 12.9087C26.1671 12.3564 25.7194 11.9087 25.1671 11.9087H14.4181V1.15918Z" fill="#3DA265"/>
</svg>
