<svg width="23" height="24" viewBox="0 0 23 24" fill="none" xmlns="http://www.w3.org/2000/svg">
<path d="M1.7002 16.7991C1.7002 16.7991 6.23571 14.6001 11.7198 16.7991C17.2038 18.9982 21.7394 16.7992 21.7394 16.7992" stroke="#3DA265" stroke-width="1.5" stroke-linecap="round"/>
<path d="M1.7002 21.4158C1.7002 21.4158 6.23571 19.2168 11.7198 21.4158C17.2038 23.6149 21.7394 21.4159 21.7394 21.4159" stroke="#3DA265" stroke-width="1.5" stroke-linecap="round"/>
<path d="M5.13574 12.8834V4.33881C5.13574 4.33881 5.13574 4.33881 5.13574 4.33881C5.13574 4.33881 5.13574 1.56152 7.97033 1.56152C10.8049 1.56152 10.8049 4.33881 10.8049 4.33881" stroke="#3DA265" stroke-width="1.5" stroke-linecap="round"/>
<path d="M15.4717 14.7129V4.33881C15.4717 4.33881 15.4717 4.33881 15.4717 4.33881C15.4717 4.33881 15.4717 1.56152 18.3063 1.56152C21.1408 1.56152 21.1408 4.33881 21.1408 4.33881" stroke="#3DA265" stroke-width="1.5" stroke-linecap="round"/>
<path d="M5.21289 10.2153H15.6429" stroke="#3DA265" stroke-width="1.5" stroke-linecap="round"/>
</svg>
