<svg width="62" height="62" viewBox="0 0 62 62" fill="none" xmlns="http://www.w3.org/2000/svg">
<path d="M31.3032 61.0225C47.8354 61.0225 61.2373 47.6205 61.2373 31.0884C61.2373 14.5562 47.8354 1.1543 31.3032 1.1543C14.7711 1.1543 1.36914 14.5562 1.36914 31.0884C1.36914 47.6205 14.7711 61.0225 31.3032 61.0225Z" stroke="#3DA265" stroke-width="1.5" stroke-linecap="round" stroke-linejoin="round"/>
<path d="M44.2681 38.5703C42.9531 40.8447 41.0629 42.7332 38.7873 44.0461C36.5117 45.3591 33.9307 46.0502 31.3035 46.0502C28.6763 46.0503 26.0954 45.3591 23.8197 44.0463C21.5441 42.7334 19.6539 40.8449 18.3389 38.5705" stroke="#3DA265" stroke-width="1.5" stroke-linecap="round" stroke-linejoin="round"/>
<path d="M20.083 28.3574C20.9114 28.3574 21.583 27.6858 21.583 26.8574C21.583 26.029 20.9114 25.3574 20.083 25.3574C19.2546 25.3574 18.583 26.029 18.583 26.8574C18.583 27.6858 19.2546 28.3574 20.083 28.3574Z" fill="#3DA265"/>
<path d="M41.5342 28.3574C42.3626 28.3574 43.0342 27.6858 43.0342 26.8574C43.0342 26.029 42.3626 25.3574 41.5342 25.3574C40.7058 25.3574 40.0342 26.029 40.0342 26.8574C40.0342 27.6858 40.7058 28.3574 41.5342 28.3574Z" fill="#3DA265"/>
</svg>
