<svg width="16" height="13" viewBox="0 0 16 13" fill="none" xmlns="http://www.w3.org/2000/svg">
<path fill-rule="evenodd" clip-rule="evenodd" d="M1.42022 5.64089C5.42535 3.89593 8.09606 2.74554 9.43236 2.18973C13.2478 0.602772 14.0406 0.327101 14.5573 0.317999C14.671 0.315997 14.9251 0.344163 15.0897 0.47773C15.2287 0.590511 15.2669 0.742863 15.2852 0.849792C15.3035 0.956721 15.3263 1.20031 15.3082 1.39064C15.1014 3.56306 14.2068 8.83495 13.7516 11.2681C13.5591 12.2976 13.1799 12.6429 12.8127 12.6766C12.0149 12.7501 11.4091 12.1494 10.6363 11.6428C9.42713 10.8502 8.74401 10.3568 7.57028 9.5833C6.21384 8.68943 7.09317 8.19814 7.8662 7.39523C8.06851 7.18511 11.5838 3.9877 11.6518 3.69764C11.6603 3.66136 11.6682 3.52614 11.5879 3.45474C11.5076 3.38334 11.389 3.40776 11.3034 3.42717C11.1822 3.4547 9.25047 4.73148 5.50836 7.25751C4.96005 7.63401 4.46341 7.81746 4.01844 7.80785C3.5279 7.79725 2.58429 7.53049 1.88281 7.30246C1.02242 7.02279 0.3386 6.87492 0.398146 6.39994C0.429161 6.15254 0.769853 5.89952 1.42022 5.64089Z" fill="black"/>
</svg>
