<svg width="17" height="17" viewBox="0 0 17 17" fill="none" xmlns="http://www.w3.org/2000/svg">
<path d="M0.75 16.25L1.84551 12.2719C1.16822 11.1042 0.812918 9.78185 0.816619 8.43002C0.816619 4.19404 4.2808 0.75 8.5333 0.75C10.5985 0.75 12.5378 1.54931 13.9923 3.00059C15.4506 4.45188 16.2537 6.38201 16.25 8.4337C16.25 12.6697 12.7858 16.1137 8.5296 16.1137H8.5259C7.23424 16.1137 5.96478 15.7896 4.83596 15.1781L0.75 16.25ZM5.03211 13.7895L5.26528 13.9294C6.24976 14.5114 7.37858 14.8171 8.5296 14.8208H8.5333C12.0678 14.8208 14.9472 11.9588 14.9472 8.43738C14.9472 6.73194 14.281 5.12963 13.0708 3.92146C11.8605 2.71328 10.2469 2.05026 8.5333 2.05026C4.9988 2.04658 2.11939 4.90863 2.11939 8.43002C2.11939 9.63451 2.45618 10.8095 3.10017 11.8262L3.25191 12.0693L2.60422 14.423L5.03211 13.7895Z" fill="black"/>
<path fill-rule="evenodd" clip-rule="evenodd" d="M6.6064 5.21752C6.46206 4.89706 6.31031 4.88969 6.17338 4.88601C6.06234 4.88232 5.93281 4.88232 5.80327 4.88232C5.67373 4.88232 5.46648 4.93021 5.28882 5.12175C5.11117 5.31329 4.61523 5.77741 4.61523 6.72405C4.61523 7.66702 5.30733 8.58052 5.40356 8.70944C5.49978 8.83836 6.73964 10.8385 8.69749 11.6083C10.326 12.2492 10.659 12.1203 11.0106 12.0872C11.3622 12.054 12.1506 11.6231 12.3134 11.1737C12.4726 10.7243 12.4726 10.3412 12.4244 10.2602C12.3763 10.1791 12.2468 10.1313 12.0543 10.0355C11.8619 9.93972 10.9144 9.4756 10.7368 9.4093C10.5591 9.34668 10.4296 9.31353 10.3037 9.50507C10.1742 9.69661 9.8041 10.1276 9.69307 10.2565C9.58204 10.3854 9.46731 10.4001 9.27485 10.3044C9.0824 10.2086 8.46062 10.006 7.72411 9.35036C7.15045 8.84204 6.76184 8.21217 6.65081 8.02063C6.53978 7.82909 6.63971 7.72596 6.73593 7.63019C6.82106 7.54547 6.92839 7.40549 7.02462 7.29499C7.12084 7.18449 7.15415 7.10345 7.21707 6.97453C7.27999 6.84561 7.25038 6.7351 7.20227 6.63933C7.15415 6.54725 6.77665 5.59692 6.6064 5.21752Z" fill="black"/>
</svg>
