<svg width="148" height="77" viewBox="0 0 148 77" fill="none" xmlns="http://www.w3.org/2000/svg">
<path d="M0.521484 0.0695343H147.828V73.279C147.828 74.9359 146.485 76.279 144.828 76.279H3.52148C1.86462 76.279 0.521484 74.9359 0.521484 73.279V0.0695343Z" fill="#F7F6F2"/>
<path d="M16.9766 43.0412V23.4857H19.9271V40.5013H28.7882V43.0412H16.9766Z" fill="#3DA165"/>
<path d="M35.1176 43.3659C34.1882 43.3659 33.3479 43.194 32.5967 42.8503C31.8456 42.5001 31.2504 41.9941 30.8112 41.332C30.3783 40.67 30.1618 39.8584 30.1618 38.8971C30.1618 38.0696 30.321 37.3884 30.6393 36.8537C30.9576 36.319 31.3873 35.8957 31.9283 35.5838C32.4694 35.2718 33.0742 35.0363 33.7426 34.8772C34.411 34.718 35.0921 34.5971 35.786 34.5143C36.6644 34.4125 37.3774 34.3297 37.9249 34.2661C38.4723 34.196 38.8702 34.0846 39.1184 33.9319C39.3667 33.7791 39.4908 33.5308 39.4908 33.1871V33.1202C39.4908 32.2863 39.2553 31.6402 38.7842 31.1819C38.3195 30.7235 37.6257 30.4944 36.7026 30.4944C35.7414 30.4944 34.9839 30.7076 34.4301 31.1341C33.8826 31.5543 33.5039 32.0221 33.2938 32.5378L30.6106 31.9266C30.9289 31.0354 31.3936 30.3161 32.0047 29.7687C32.6222 29.2148 33.332 28.8138 34.1341 28.5655C34.9361 28.3109 35.7796 28.1836 36.6644 28.1836C37.2501 28.1836 37.8708 28.2536 38.5264 28.3937C39.1885 28.5273 39.8059 28.7756 40.3789 29.1385C40.9581 29.5013 41.4324 30.0201 41.8016 30.6949C42.1708 31.3633 42.3554 32.2322 42.3554 33.3016V43.0412H39.5672V41.036H39.4526C39.268 41.4052 38.9911 41.7681 38.6219 42.1246C38.2527 42.481 37.7784 42.777 37.1992 43.0126C36.6199 43.2481 35.926 43.3659 35.1176 43.3659ZM35.7382 41.0742C36.5276 41.0742 37.2024 40.9182 37.7625 40.6063C38.3291 40.2944 38.7588 39.887 39.0516 39.3841C39.3508 38.8748 39.5004 38.3306 39.5004 37.7513V35.8607C39.3985 35.9625 39.2012 36.058 38.9084 36.1471C38.6219 36.2299 38.2941 36.3031 37.9249 36.3667C37.5556 36.424 37.196 36.4781 36.8459 36.5291C36.4958 36.5736 36.2029 36.6118 35.9674 36.6437C35.4136 36.7137 34.9075 36.8314 34.4492 36.997C33.9972 37.1625 33.6344 37.4012 33.3606 37.7131C33.0933 38.0187 32.9596 38.4261 32.9596 38.9353C32.9596 39.6419 33.2206 40.1766 33.7426 40.5395C34.2646 40.896 34.9298 41.0742 35.7382 41.0742Z" fill="#3DA165"/>
<path d="M51.3523 43.0412V23.4857H58.3228C59.8442 23.4857 61.1046 23.7626 62.104 24.3164C63.1034 24.8702 63.8514 25.6278 64.3479 26.589C64.8445 27.5438 65.0927 28.6196 65.0927 29.8164C65.0927 31.0195 64.8413 32.1017 64.3384 33.0629C63.8419 34.0178 63.0907 34.7753 62.0849 35.3355C61.0855 35.8893 59.8283 36.1662 58.3132 36.1662H53.5198V33.6645H58.0459C59.0071 33.6645 59.7869 33.499 60.3853 33.168C60.9837 32.8306 61.4229 32.3722 61.703 31.793C61.9831 31.2137 62.1231 30.5548 62.1231 29.8164C62.1231 29.078 61.9831 28.4223 61.703 27.8494C61.4229 27.2765 60.9805 26.8277 60.3757 26.503C59.7773 26.1784 58.988 26.0161 58.0077 26.0161H54.3028V43.0412H51.3523Z" fill="#3DA165"/>
<path d="M67.247 43.0412V28.3746H70.102V43.0412H67.247ZM68.6888 26.1115C68.1923 26.1115 67.7658 25.946 67.4093 25.615C67.0592 25.2776 66.8841 24.8766 66.8841 24.4119C66.8841 23.9408 67.0592 23.5398 67.4093 23.2088C67.7658 22.8714 68.1923 22.7027 68.6888 22.7027C69.1854 22.7027 69.6087 22.8714 69.9588 23.2088C70.3153 23.5398 70.4935 23.9408 70.4935 24.4119C70.4935 24.8766 70.3153 25.2776 69.9588 25.615C69.6087 25.946 69.1854 26.1115 68.6888 26.1115Z" fill="#3DA165"/>
<path d="M75.7224 34.3329V43.0412H72.8674V28.3746H75.6079V30.7617H75.7893C76.1267 29.9851 76.655 29.3613 77.3743 28.8902C78.1 28.4191 79.0135 28.1836 80.1148 28.1836C81.1142 28.1836 81.9895 28.3937 82.7407 28.8138C83.4918 29.2276 84.0743 29.8451 84.488 30.6662C84.9018 31.4874 85.1087 32.5027 85.1087 33.7122V43.0412H82.2537V34.056C82.2537 32.9929 81.9768 32.1622 81.4229 31.5638C80.8691 30.9591 80.1084 30.6567 79.1408 30.6567C78.4788 30.6567 77.89 30.7999 77.3743 31.0864C76.8651 31.3728 76.4609 31.793 76.1617 32.3468C75.8688 32.8942 75.7224 33.5563 75.7224 34.3329Z" fill="#3DA165"/>
<path d="M92.1304 43.3659C91.201 43.3659 90.3607 43.194 89.6095 42.8503C88.8584 42.5001 88.2632 41.9941 87.824 41.332C87.3911 40.67 87.1747 39.8584 87.1747 38.8971C87.1747 38.0696 87.3338 37.3884 87.6521 36.8537C87.9704 36.319 88.4001 35.8957 88.9411 35.5838C89.4822 35.2718 90.087 35.0363 90.7554 34.8772C91.4238 34.718 92.1049 34.5971 92.7988 34.5143C93.6773 34.4125 94.3902 34.3297 94.9377 34.2661C95.4851 34.196 95.883 34.0846 96.1312 33.9319C96.3795 33.7791 96.5036 33.5308 96.5036 33.1871V33.1202C96.5036 32.2863 96.2681 31.6402 95.797 31.1819C95.3323 30.7235 94.6385 30.4944 93.7154 30.4944C92.7542 30.4944 91.9967 30.7076 91.4429 31.1341C90.8954 31.5543 90.5167 32.0221 90.3066 32.5378L87.6234 31.9266C87.9417 31.0354 88.4064 30.3161 89.0175 29.7687C89.635 29.2148 90.3448 28.8138 91.1469 28.5655C91.949 28.3109 92.7924 28.1836 93.6772 28.1836C94.2629 28.1836 94.8836 28.2536 95.5392 28.3937C96.2013 28.5273 96.8187 28.7756 97.3917 29.1385C97.9709 29.5013 98.4452 30.0201 98.8144 30.6949C99.1836 31.3633 99.3682 32.2322 99.3682 33.3016V43.0412H96.58V41.036H96.4654C96.2808 41.4052 96.0039 41.7681 95.6347 42.1246C95.2655 42.481 94.7913 42.777 94.212 43.0126C93.6327 43.2481 92.9388 43.3659 92.1304 43.3659ZM92.751 41.0742C93.5404 41.0742 94.2152 40.9182 94.7753 40.6063C95.3419 40.2944 95.7716 39.887 96.0644 39.3841C96.3636 38.8748 96.5132 38.3306 96.5132 37.7513V35.8607C96.4113 35.9625 96.214 36.058 95.9212 36.1471C95.6347 36.2299 95.3069 36.3031 94.9377 36.3667C94.5685 36.424 94.2088 36.4781 93.8587 36.5291C93.5086 36.5736 93.2157 36.6118 92.9802 36.6437C92.4264 36.7137 91.9203 36.8314 91.462 36.997C91.01 37.1625 90.6472 37.4012 90.3734 37.7131C90.1061 38.0187 89.9724 38.4261 89.9724 38.9353C89.9724 39.6419 90.2334 40.1766 90.7554 40.5395C91.2774 40.896 91.9426 41.0742 92.751 41.0742Z" fill="#3DA165"/>
<path d="M107.586 43.3277C106.402 43.3277 105.345 43.0253 104.416 42.4206C103.493 41.8095 102.767 40.9405 102.239 39.8138C101.717 38.6807 101.456 37.3216 101.456 35.7365C101.456 34.1515 101.72 32.7956 102.248 31.6688C102.783 30.5421 103.515 29.6795 104.444 29.0812C105.374 28.4828 106.427 28.1836 107.605 28.1836C108.515 28.1836 109.247 28.3364 109.801 28.6419C110.361 28.9411 110.794 29.2912 111.1 29.6923C111.412 30.0933 111.654 30.4466 111.825 30.7522H111.997V23.4857H114.852V43.0412H112.064V40.7591H111.825C111.654 41.071 111.405 41.4275 111.081 41.8286C110.762 42.2296 110.323 42.5797 109.763 42.8789C109.203 43.1781 108.477 43.3277 107.586 43.3277ZM108.216 40.8928C109.037 40.8928 109.731 40.6764 110.298 40.2435C110.871 39.8042 111.303 39.1963 111.596 38.4197C111.895 37.6431 112.045 36.7391 112.045 35.7079C112.045 34.6894 111.899 33.7982 111.606 33.0343C111.313 32.2704 110.883 31.6752 110.317 31.2487C109.75 30.8222 109.05 30.6089 108.216 30.6089C107.357 30.6089 106.641 30.8317 106.068 31.2773C105.495 31.7229 105.062 32.3309 104.769 33.1011C104.483 33.8714 104.339 34.7403 104.339 35.7079C104.339 36.6882 104.486 37.5699 104.779 38.3529C105.071 39.1358 105.504 39.7565 106.077 40.2148C106.656 40.6668 107.369 40.8928 108.216 40.8928Z" fill="#3DA165"/>
<path d="M122.12 43.3659C121.19 43.3659 120.35 43.194 119.599 42.8503C118.848 42.5001 118.253 41.9941 117.813 41.332C117.381 40.67 117.164 39.8584 117.164 38.8971C117.164 38.0696 117.323 37.3884 117.642 36.8537C117.96 36.319 118.39 35.8957 118.931 35.5838C119.472 35.2718 120.076 35.0363 120.745 34.8772C121.413 34.718 122.094 34.5971 122.788 34.5143C123.667 34.4125 124.38 34.3297 124.927 34.2661C125.475 34.196 125.872 34.0846 126.121 33.9319C126.369 33.7791 126.493 33.5308 126.493 33.1871V33.1202C126.493 32.2863 126.258 31.6402 125.787 31.1819C125.322 30.7235 124.628 30.4944 123.705 30.4944C122.744 30.4944 121.986 30.7076 121.432 31.1341C120.885 31.5543 120.506 32.0221 120.296 32.5378L117.613 31.9266C117.931 31.0354 118.396 30.3161 119.007 29.7687C119.624 29.2148 120.334 28.8138 121.136 28.5655C121.938 28.3109 122.782 28.1836 123.667 28.1836C124.252 28.1836 124.873 28.2536 125.529 28.3937C126.191 28.5273 126.808 28.7756 127.381 29.1385C127.96 29.5013 128.435 30.0201 128.804 30.6949C129.173 31.3633 129.358 32.2322 129.358 33.3016V43.0412H126.57V41.036H126.455C126.27 41.4052 125.993 41.7681 125.624 42.1246C125.255 42.481 124.781 42.777 124.201 43.0126C123.622 43.2481 122.928 43.3659 122.12 43.3659ZM122.741 41.0742C123.53 41.0742 124.205 40.9182 124.765 40.6063C125.331 40.2944 125.761 39.887 126.054 39.3841C126.353 38.8748 126.503 38.3306 126.503 37.7513V35.8607C126.401 35.9625 126.203 36.058 125.911 36.1471C125.624 36.2299 125.296 36.3031 124.927 36.3667C124.558 36.424 124.198 36.4781 123.848 36.5291C123.498 36.5736 123.205 36.6118 122.97 36.6437C122.416 36.7137 121.91 36.8314 121.451 36.997C120.999 37.1625 120.637 37.4012 120.363 37.7131C120.096 38.0187 119.962 38.4261 119.962 38.9353C119.962 39.6419 120.223 40.1766 120.745 40.5395C121.267 40.896 121.932 41.0742 122.741 41.0742Z" fill="#3DA165"/>
<path d="M17.8282 58.9261L19.455 63.6865H19.5206L21.1473 58.9261H22.1006L19.9972 64.7709H18.9784L16.875 58.9261H17.8282Z" fill="#363E3A"/>
<path d="M40.7437 58.9261V64.7709H39.8618V58.9261H40.7437Z" fill="#363E3A"/>
<path d="M58.9452 64.7709V58.9261H59.8271V64.0118H62.4755V64.7709H58.9452Z" fill="#363E3A"/>
<path d="M80.3987 64.7709V58.9261H81.2806V64.0118H83.9291V64.7709H80.3987Z" fill="#363E3A"/>
<path d="M102.644 64.7709H101.708L103.812 58.9261H104.83L106.934 64.7709H105.998L104.345 59.9878H104.3L102.644 64.7709ZM102.801 62.4821H105.838V63.2241H102.801V62.4821Z" fill="#363E3A"/>
<path d="M127.836 60.4615C127.805 60.1913 127.68 59.982 127.459 59.8336C127.238 59.6833 126.961 59.6082 126.626 59.6082C126.386 59.6082 126.179 59.6462 126.004 59.7223C125.828 59.7965 125.692 59.8993 125.595 60.0306C125.5 60.1599 125.453 60.3074 125.453 60.4729C125.453 60.6118 125.485 60.7317 125.55 60.8325C125.616 60.9334 125.703 61.018 125.809 61.0865C125.918 61.1531 126.034 61.2092 126.158 61.2549C126.281 61.2987 126.4 61.3348 126.514 61.3633L127.085 61.5118C127.272 61.5574 127.463 61.6193 127.659 61.6973C127.855 61.7753 128.036 61.878 128.204 62.0055C128.371 62.133 128.506 62.2909 128.609 62.4792C128.714 62.6676 128.766 62.8931 128.766 63.1556C128.766 63.4867 128.681 63.7806 128.509 64.0375C128.34 64.2943 128.094 64.497 127.77 64.6454C127.449 64.7938 127.059 64.868 126.603 64.868C126.165 64.868 125.787 64.7985 125.467 64.6596C125.147 64.5208 124.897 64.3238 124.716 64.0689C124.536 63.812 124.436 63.5076 124.417 63.1556H125.301C125.319 63.3668 125.387 63.5428 125.507 63.6836C125.629 63.8225 125.784 63.9262 125.972 63.9947C126.162 64.0613 126.371 64.0946 126.597 64.0946C126.846 64.0946 127.068 64.0556 127.262 63.9776C127.458 63.8976 127.612 63.7873 127.724 63.6465C127.837 63.5038 127.893 63.3373 127.893 63.1471C127.893 62.9739 127.843 62.8322 127.744 62.7218C127.647 62.6115 127.515 62.5201 127.348 62.4478C127.182 62.3755 126.995 62.3118 126.786 62.2566L126.095 62.0683C125.627 61.9408 125.256 61.7534 124.982 61.506C124.71 61.2587 124.574 60.9315 124.574 60.5243C124.574 60.1875 124.665 59.8936 124.848 59.6424C125.03 59.3913 125.278 59.1963 125.59 59.0574C125.902 58.9166 126.254 58.8462 126.646 58.8462C127.041 58.8462 127.391 58.9156 127.693 59.0545C127.997 59.1934 128.237 59.3846 128.412 59.6282C128.587 59.8698 128.679 60.1476 128.686 60.4615H127.836Z" fill="#363E3A"/>
</svg>
